<?xml version="1.0" encoding="iso-8859-1"?>
<!-- Generator: Adobe Illustrator 16.0.0, SVG Export Plug-In . SVG Version: 6.00 Build 0)  -->
<!DOCTYPE svg PUBLIC "-//W3C//DTD SVG 1.1//EN" "http://www.w3.org/Graphics/SVG/1.1/DTD/svg11.dtd">
<svg version="1.1" id="ph-layer" xmlns="http://www.w3.org/2000/svg" xmlns:xlink="http://www.w3.org/1999/xlink" x="0px" y="0px"
	 width="604.571px" height="114.132px" viewBox="3.714 323.814 604.571 114.132"
	 style="enable-background:new 3.714 323.814 604.571 114.132;" xml:space="preserve">
<title>ph</title>
<g id="powerhouse">
	<g id="workmark">
		<path d="M301.745,352.08c-15.862,0.018-28.716,12.872-28.734,28.734v23.023c-0.168,3.132,2.234,5.807,5.365,5.975
			c3.131,0.169,5.807-2.233,5.975-5.365c0.011-0.203,0.011-0.406,0-0.609v-23.023c0-9.606,7.788-17.395,17.394-17.395l0,0
			c3.159-0.009,5.719-2.568,5.728-5.727c-0.018-3.118-2.56-5.631-5.678-5.613C301.778,352.08,301.762,352.08,301.745,352.08
			 M238.451,363.272c6.873,0,14.204,3.666,16.593,11.684h-33.087C224.424,367.961,231.033,363.28,238.451,363.272 M238.451,351.933
			c-15.874,0.379-28.436,13.555-28.057,29.429c0.366,15.342,12.716,27.691,28.057,28.057c6.259,0.385,12.465-1.344,17.624-4.908
			c2.634-1.719,4.124-4.697,2.749-7.561c-1.375-2.864-4.909-4.353-7.544-2.635c-3.794,2.532-8.268,3.851-12.829,3.78
			c-7.453-0.01-14.078-4.749-16.494-11.798h39.501c3.118,0.045,5.682-2.445,5.727-5.563c0-0.017,0-0.033,0-0.05
			c0-18.654-14.875-28.734-28.735-28.734 M204.545,352.538c-2.885-1.133-6.143,0.287-7.276,3.172
			c-0.013,0.033-0.026,0.067-0.039,0.101l-12.027,32.007l-11.913-31.729c-0.472-1.632-1.684-2.948-3.273-3.551
			c-0.114,0-0.114,0-0.229-0.114h-0.229c-0.115-0.115-0.115-0.115-0.229-0.115h-0.229c-0.063,0-0.115-0.051-0.115-0.115h-1.26
			c-0.562,0.014-1.116,0.13-1.636,0.344c-1.629,0.589-2.893,1.9-3.42,3.551l-12.043,31.729L138.6,355.86
			c-1.017-2.861-4.161-4.356-7.022-3.339c-0.06,0.021-0.119,0.043-0.178,0.067c-2.902,1.062-4.394,4.277-3.331,7.179
			c0.019,0.051,0.038,0.102,0.058,0.151l17.165,45.818c0.808,2.277,2.968,3.793,5.384,3.78c2.419-0.062,4.574-1.544,5.498-3.78
			l11.782-31.713l11.913,31.713c0.808,2.277,2.968,3.793,5.384,3.78c2.418-0.062,4.574-1.544,5.498-3.78l17.166-45.818
			c1.063-2.926-0.385-6.168-3.273-7.331 M96.545,363.272c9.616,0.037,17.381,7.861,17.345,17.477s-7.86,17.382-17.476,17.345
			c-9.584-0.035-17.336-7.81-17.345-17.394c-0.019-9.607,7.754-17.41,17.361-17.428C96.469,363.272,96.507,363.272,96.545,363.272
			 M96.545,409.418c15.879-0.027,28.729-12.921,28.702-28.8c-0.027-15.878-12.921-28.729-28.8-28.702
			c-15.872,0.027-28.72,12.911-28.702,28.784c0.009,15.888,12.896,28.76,28.784,28.751c0.005,0,0.011,0,0.016,0 M32.449,363.764
			c9.616-0.009,17.418,7.779,17.427,17.395c0.009,9.616-7.779,17.418-17.395,17.428c-9.584,0.008-17.373-7.729-17.427-17.313v-0.114
			C15.055,371.551,22.842,363.764,32.449,363.764L32.449,363.764 M32.449,409.909c15.878,0.009,28.758-12.856,28.767-28.735
			c0.009-15.878-12.856-28.758-28.734-28.767c-15.879-0.009-28.758,12.856-28.768,28.734c0,0.006,0,0.011,0,0.017v51.414
			c0.168,3.132,2.843,5.534,5.975,5.365c2.896-0.155,5.209-2.469,5.365-5.365v-28.505C20.056,407.869,26.167,409.922,32.449,409.909
			"/>
		<path d="M482.891,352.08c-3.117-0.045-5.682,2.445-5.727,5.563c0,0.017,0,0.033,0,0.05v28.62c0,6.543-5.305,11.848-11.848,11.848
			s-11.848-5.304-11.848-11.848v-28.62c-0.168-3.131-2.843-5.534-5.975-5.365c-2.896,0.156-5.209,2.469-5.365,5.365v28.849
			c0.006,12.806,10.393,23.183,23.198,23.176c12.798-0.006,23.17-10.379,23.177-23.176v-28.849
			C488.494,354.597,485.987,352.089,482.891,352.08 M405.131,363.272c9.615-0.054,17.455,7.697,17.509,17.312
			c0.055,9.616-7.696,17.454-17.312,17.509c-9.615,0.055-17.454-7.697-17.509-17.312c0-0.027,0-0.055,0-0.082
			C387.791,371.108,395.54,363.309,405.131,363.272 M405.131,409.418c15.879-0.009,28.743-12.889,28.734-28.767
			c-0.009-15.879-12.889-28.744-28.768-28.734c-15.878,0.009-28.743,12.889-28.734,28.767c0,0.005,0,0.011,0,0.017
			c0,15.872,12.862,28.741,28.735,28.751 M343.129,351.965c-4.926-0.022-9.748,1.412-13.859,4.124v-26.901
			c-0.169-3.132-2.844-5.534-5.976-5.365c-2.896,0.155-5.209,2.469-5.365,5.365v74.536c-0.168,3.132,2.234,5.807,5.365,5.975
			c3.132,0.169,5.807-2.233,5.976-5.364c0.011-0.203,0.011-0.407,0-0.61v-26.558c0-7.682,6.227-13.909,13.908-13.909
			c7.683,0,13.909,6.228,13.909,13.909v26.558c-0.045,3.118,2.445,5.682,5.563,5.727c0.017,0.001,0.033,0.001,0.05,0.001
			c3.159-0.01,5.718-2.568,5.728-5.728v-26.558C368.373,363.232,357.062,351.965,343.129,351.965 M579.551,363.272
			c6.873,0,14.188,3.666,16.593,11.684h-33.087C565.524,367.961,572.133,363.28,579.551,363.272 M579.551,351.933
			c-15.874,0.379-28.436,13.555-28.057,29.429c0.366,15.342,12.716,27.691,28.057,28.057c6.259,0.383,12.465-1.346,17.624-4.908
			c2.634-1.719,4.123-4.697,2.749-7.561c-1.375-2.864-4.909-4.353-7.561-2.635c-3.787,2.533-8.257,3.853-12.812,3.78
			c-7.452-0.01-14.078-4.749-16.494-11.798h39.502c3.117,0.045,5.682-2.445,5.727-5.563c0-0.017,0-0.033,0-0.05
			c0-18.654-14.891-28.734-28.734-28.734 M536.629,379.882c-4.847-3.28-10.614-4.925-16.462-4.696c-7.593,0-11.7-3.077-11.7-5.957
			c0.124-1.422,0.913-2.703,2.128-3.453c3.018-1.792,6.492-2.662,9.998-2.504c4.717,0.121,9.335,1.372,13.468,3.649l0,0
			c0.63,0.337,1.33,0.522,2.045,0.54c2.961-0.115,5.272-2.602,5.171-5.564c0.095-2.232-1.111-4.318-3.093-5.351
			c-5.364-3.029-11.431-4.598-17.591-4.549c-5.915-0.154-11.736,1.495-16.69,4.729c-4.107,2.87-6.6,7.526-6.71,12.535
			c0.085,4.963,2.513,9.593,6.546,12.485c4.8,3.306,10.54,4.97,16.363,4.746c3.451-0.205,6.881,0.665,9.818,2.487
			c1.188,0.724,1.959,1.969,2.078,3.354c0,2.847-4.14,5.859-11.831,5.859c-8.296,0-12.764-2.324-14.171-3.273l-0.475-0.327l0,0
			c-0.807-0.487-1.725-0.758-2.667-0.786c-3.094-0.009-5.611,2.487-5.629,5.58c-0.063,1.888,0.813,3.684,2.34,4.795l0,0
			c0.671,0.426,7.004,5.285,20.602,5.285c5.85,0.223,11.617-1.428,16.462-4.713c6.864-4.578,8.717-13.855,4.137-20.719
			c-1.093-1.638-2.498-3.044-4.137-4.137"/>
	</g>
</g>
</svg>
