<?xml version="1.0" encoding="iso-8859-1"?>
<!-- Generator: Adobe Illustrator 16.0.0, SVG Export Plug-In . SVG Version: 6.00 Build 0)  -->
<!DOCTYPE svg PUBLIC "-//W3C//DTD SVG 1.1//EN" "http://www.w3.org/Graphics/SVG/1.1/DTD/svg11.dtd">
<svg version="1.1" id="Layer_1" xmlns="http://www.w3.org/2000/svg" xmlns:xlink="http://www.w3.org/1999/xlink" x="0px" y="0px"
	 width="311.367px" height="15.441px" viewBox="0 0 311.367 15.441" style="enable-background:new 0 0 311.367 15.441;"
	 xml:space="preserve">
<path id="tagline" style="fill:#010101;" d="M0,0.208h6.071c3.567,0,5.711,2.111,5.711,5.155l0,0c0,3.436-2.684,5.22-6.022,5.22
	H3.272v4.517H0V0.208z M5.858,7.718c1.267,0.136,2.404-0.781,2.54-2.048c0.007-0.069,0.012-0.14,0.013-0.21l0,0
	c0-1.473-1.014-2.258-2.651-2.258H3.272v4.549L5.858,7.718z M14.04,0.208h3.272v11.913h7.462v2.979H14.073L14.04,0.208z
	 M26.509,8.717v-8.51h3.272v8.428c0,2.422,1.211,3.682,3.273,3.682c2.062,0,3.272-1.211,3.272-3.567V0.208H39.6v8.411
	c0,4.5-2.537,6.726-6.545,6.726c-4.009,0-6.513-2.242-6.513-6.627H26.509z M42.055,7.703L42.055,7.703
	c-0.028-4.221,3.37-7.665,7.591-7.692c0.071-0.001,0.143,0,0.214,0.001c2.14-0.109,4.238,0.625,5.842,2.046L53.64,4.544
	c-1.045-1.004-2.446-1.551-3.895-1.522c-2.458,0.115-4.364,2.189-4.271,4.647l0,0c-0.154,2.453,1.71,4.567,4.164,4.721
	c0.112,0.007,0.224,0.01,0.336,0.009c1.1,0.035,2.183-0.279,3.093-0.9V9.372h-3.273V6.524h6.545v6.546
	c-1.774,1.517-4.031,2.353-6.365,2.356c-4.104,0.247-7.632-2.88-7.879-6.984c-0.015-0.246-0.018-0.493-0.008-0.739H42.055z
	 M59.236,6.95h6.545v3.076h-6.545V6.95z M69.055,0.208h3.272v14.892h-3.272V0.208z M75.943,0.208h3.027l6.971,9.181V0.208h3.272
	v14.892h-2.782L79.216,5.64v9.459h-3.273V0.208z M98.706,0.208h5.809c4.094-0.271,7.632,2.828,7.904,6.922
	c0.011,0.164,0.016,0.327,0.016,0.491l0,0c-0.001,4.121-3.343,7.461-7.464,7.459c-0.152,0-0.304-0.004-0.456-0.014h-5.809V0.208z
	 M104.515,12.153c2.346,0.139,4.359-1.65,4.498-3.996c0.009-0.151,0.01-0.303,0.002-0.454l0,0c0.111-2.365-1.716-4.373-4.081-4.484
	c-0.14-0.007-0.28-0.007-0.419,0h-2.504v8.935H104.515z M115.331,0.208h3.272v14.892h-3.272V0.208z M121.5,7.703L121.5,7.703
	c-0.028-4.221,3.371-7.665,7.591-7.692c0.071-0.001,0.143,0,0.215,0.001c2.146-0.113,4.25,0.621,5.858,2.046l-2.062,2.487
	c-1.047-1.001-2.446-1.548-3.895-1.522c-2.464,0.106-4.379,2.183-4.287,4.647l0,0c-0.136,2.464,1.75,4.571,4.213,4.708
	c0.123,0.007,0.246,0.008,0.369,0.005c1.1,0.036,2.183-0.279,3.093-0.9V9.355h-3.273V6.524h6.463v6.546
	c-1.762,1.526-4.018,2.363-6.349,2.356c-4.113,0.256-7.655-2.871-7.911-6.984c-0.015-0.246-0.018-0.493-0.009-0.739H121.5z
	 M139.025,0.208h3.273v14.892h-3.273V0.208z M149.023,3.235h-4.533V0.208h12.338v3.027h-4.533v11.864h-3.272V3.235z M162.426,0.11
	h3.076l6.382,14.989h-3.42l-1.358-3.273h-6.35l-1.357,3.273h-3.354L162.426,0.11z M165.878,8.864l-1.979-4.909l-1.98,4.909H165.878z
	 M173.896,0.208h3.272v11.913h7.429v2.979h-10.701V0.208z M193.009,0.208h11.242v2.913h-7.985v3.027h7.02V9.06h-7.02v3.126h8.083
	v2.913h-11.34V0.208z M211.32,7.539l-4.909-7.331h3.829l3.142,4.909l3.142-4.909h3.731l-4.909,7.282l5.187,7.609h-3.812
	l-3.502-5.073l-3.272,5.105h-3.73L211.32,7.539z M222.513,0.208h6.087c3.551,0,5.695,2.111,5.695,5.155l0,0
	c0,3.436-2.668,5.22-6.022,5.22h-2.487v4.517h-3.272V0.208z M228.387,7.718c1.267,0.146,2.41-0.764,2.555-2.03
	c0.009-0.075,0.014-0.151,0.015-0.228l0,0c0-1.473-1.03-2.258-2.667-2.258h-2.536v4.549L228.387,7.718z M236.569,0.208h11.226v2.913
	h-7.97v3.027h7.021V9.06h-7.021v3.126h8.084v2.913h-11.34V0.208z M250.92,0.208h6.808c1.591-0.099,3.155,0.45,4.336,1.522
	c0.873,0.906,1.34,2.129,1.293,3.387l0,0c0.09,2.105-1.257,4.004-3.272,4.614l3.633,5.318h-3.829l-3.191-4.762h-2.569v4.812h-3.272
	L250.92,0.208z M257.466,7.441c1.636,0,2.503-0.852,2.503-2.095l0,0c0-1.407-0.981-2.128-2.568-2.128h-3.273V7.49L257.466,7.441z
	 M269.542,3.235h-4.517V0.208h12.338v3.027h-4.532v11.864h-3.272L269.542,3.235z M279.638,0.208h3.273v14.892h-3.273V0.208z
	 M285.464,12.939l1.931-2.324c1.214,1.126,2.796,1.771,4.451,1.816c1.342,0,2.144-0.54,2.144-1.407l0,0
	c0-0.834-0.508-1.26-2.995-1.898c-3.011-0.752-4.909-1.636-4.909-4.549l0,0c0-2.716,2.177-4.5,5.221-4.5
	c1.98-0.056,3.921,0.567,5.498,1.768l-1.637,2.471c-1.114-0.871-2.466-1.385-3.878-1.473c-1.26,0-1.915,0.573-1.915,1.293l0,0
	c0,0.981,0.639,1.293,3.273,1.964c3.027,0.785,4.729,1.865,4.729,4.467l0,0c0,2.962-2.258,4.614-5.465,4.614
	C289.559,15.258,287.261,14.459,285.464,12.939z M300.027,0.208h11.241v2.913h-7.985v3.027h7.021V9.06h-7.021v3.126h8.084v2.913
	h-11.34V0.208z"/>
</svg>
